<svg width="400" height="330" viewBox="0 0 400 330" fill="none" xmlns="http://www.w3.org/2000/svg">
<g clip-path="url(#clip0_2002_456)">
<path opacity="0.1" fill-rule="evenodd" clip-rule="evenodd" d="M411 319C575.029 319 708 186.029 708 22C708 -142.029 575.029 -275 411 -275C246.971 -275 114 -142.029 114 22C114 186.029 246.971 319 411 319ZM411 198C508.202 198 587 119.202 587 22C587 -75.2021 508.202 -154 411 -154C313.798 -154 235 -75.2021 235 22C235 119.202 313.798 198 411 198Z" fill="#F15F36"/>
<path opacity="0.1" fill-rule="evenodd" clip-rule="evenodd" d="M114 330C278.029 330 411 197.029 411 33C411 -131.029 278.029 -264 114 -264C-50.0286 -264 -183 -131.029 -183 33C-183 197.029 -50.0286 330 114 330ZM114 298C244.339 298 350 192.339 350 62C350 -68.3392 244.339 -174 114 -174C-16.3392 -174 -122 -68.3392 -122 62C-122 192.339 -16.3392 298 114 298Z" fill="#F15F36"/>
</g>
<defs>
<clipPath id="clip0_2002_456">
<rect width="400" height="330" fill="white"/>
</clipPath>
</defs>
</svg>
