<svg width="96" height="96" viewBox="0 0 96 96" fill="none" xmlns="http://www.w3.org/2000/svg">
<g clip-path="url(#clip0_2002_596)">
<rect width="96" height="96" rx="48" fill="#FFFBEB"/>
<rect x="12" y="12" width="72" height="72" rx="36" fill="#FEF3C7"/>
<rect x="24" y="24" width="48" height="48" rx="24" fill="white"/>
<path d="M48 24C34.7665 24 24 34.7665 24 48C24 61.2335 34.7665 72 48 72C61.2335 72 72 61.2335 72 48C72 34.7665 61.2335 24 48 24ZM48 60.9127C47.5436 60.9127 47.0974 60.7773 46.7179 60.5238C46.3384 60.2702 46.0426 59.9098 45.868 59.4881C45.6933 59.0664 45.6476 58.6024 45.7366 58.1548C45.8257 57.7071 46.0455 57.296 46.3682 56.9732C46.691 56.6505 47.1021 56.4307 47.5498 56.3416C47.9974 56.2526 48.4614 56.2983 48.8831 56.473C49.3048 56.6476 49.6652 56.9434 49.9188 57.3229C50.1723 57.7024 50.3077 58.1486 50.3077 58.605C50.3077 59.217 50.0646 59.804 49.6318 60.2368C49.199 60.6696 48.612 60.9127 48 60.9127ZM50.5062 37.7031L49.8438 51.78C49.8438 52.2696 49.6493 52.7392 49.3031 53.0854C48.9569 53.4316 48.4873 53.6262 47.9977 53.6262C47.5081 53.6262 47.0385 53.4316 46.6923 53.0854C46.346 52.7392 46.1515 52.2696 46.1515 51.78L45.4892 37.71V37.7042C45.4747 37.3661 45.5288 37.0285 45.6482 36.7118C45.7676 36.395 45.9499 36.1058 46.184 35.8614C46.4181 35.6169 46.6993 35.4224 47.0106 35.2896C47.3219 35.1567 47.6569 35.0882 47.9954 35.0882C48.3339 35.0882 48.6688 35.1567 48.9801 35.2896C49.2914 35.4224 49.5726 35.6169 49.8068 35.8614C50.0409 36.1058 50.2232 36.395 50.3426 36.7118C50.462 37.0285 50.5161 37.3661 50.5015 37.7042L50.5062 37.7031Z" fill="#F59E0B"/>
</g>
<defs>
<clipPath id="clip0_2002_596">
<rect width="96" height="96" fill="white"/>
</clipPath>
</defs>
</svg>
