<svg width="21" height="20" viewBox="0 0 21 20" fill="none" xmlns="http://www.w3.org/2000/svg">
<path d="M4.49251 14.8364C6.18553 13.8795 8.14147 13.3333 10.225 13.3333C12.3085 13.3333 14.2644 13.8795 15.9574 14.8364M12.725 8.33333C12.725 9.71405 11.6057 10.8333 10.225 10.8333C8.84426 10.8333 7.72498 9.71405 7.72498 8.33333C7.72498 6.95262 8.84426 5.83333 10.225 5.83333C11.6057 5.83333 12.725 6.95262 12.725 8.33333ZM17.725 10C17.725 14.1421 14.3671 17.5 10.225 17.5C6.08284 17.5 2.72498 14.1421 2.72498 10C2.72498 5.85786 6.08284 2.5 10.225 2.5C14.3671 2.5 17.725 5.85786 17.725 10Z" stroke="#A1A1AA" stroke-width="2" stroke-linecap="round" stroke-linejoin="round"/>
</svg>
