<svg width="96" height="96" viewBox="0 0 96 96" fill="none" xmlns="http://www.w3.org/2000/svg">
<g clip-path="url(#clip0_2002_591)">
<rect width="96" height="96" rx="48" fill="#FEF2F2"/>
<rect x="12" y="12" width="72" height="72" rx="36" fill="#FEE2E2"/>
<rect x="24" y="24" width="48" height="48" rx="24" fill="white"/>
<path d="M48 24C34.7665 24 24 34.7665 24 48C24 61.2335 34.7665 72 48 72C61.2335 72 72 61.2335 72 48C72 34.7665 61.2335 24 48 24ZM56.6896 54.0796C56.8683 54.2493 57.0111 54.4531 57.1098 54.6789C57.2084 54.9047 57.2609 55.148 57.264 55.3944C57.2672 55.6408 57.221 55.8853 57.1281 56.1136C57.0353 56.3419 56.8977 56.5492 56.7235 56.7235C56.5492 56.8977 56.3419 57.0353 56.1136 57.1281C55.8853 57.221 55.6408 57.2672 55.3944 57.264C55.148 57.2609 54.9047 57.2084 54.6789 57.1098C54.4531 57.0111 54.2493 56.8683 54.0796 56.6896L48 50.6112L41.9204 56.6896C41.5713 57.0212 41.1066 57.2034 40.6252 57.1972C40.1438 57.191 39.6838 56.9971 39.3434 56.6566C39.0029 56.3162 38.809 55.8562 38.8028 55.3748C38.7966 54.8934 38.9788 54.4287 39.3104 54.0796L45.3888 48L39.3104 41.9204C38.9788 41.5713 38.7966 41.1066 38.8028 40.6252C38.809 40.1438 39.0029 39.6838 39.3434 39.3434C39.6838 39.0029 40.1438 38.809 40.6252 38.8028C41.1066 38.7966 41.5713 38.9788 41.9204 39.3104L48 45.3888L54.0796 39.3104C54.4287 38.9788 54.8934 38.7966 55.3748 38.8028C55.8562 38.809 56.3162 39.0029 56.6566 39.3434C56.9971 39.6838 57.191 40.1438 57.1972 40.6252C57.2034 41.1066 57.0212 41.5713 56.6896 41.9204L50.6112 48L56.6896 54.0796Z" fill="#EF4444"/>
</g>
<defs>
<clipPath id="clip0_2002_591">
<rect width="96" height="96" fill="white"/>
</clipPath>
</defs>
</svg>
