<svg width="20" height="21" viewBox="0 0 20 21" fill="none" xmlns="http://www.w3.org/2000/svg">
<g id="vuesax/linear/filter">
<g id="filter">
<path id="Vector" d="M4.50065 2.25H15.5007C16.4173 2.25 17.1673 3 17.1673 3.91667V5.75C17.1673 6.41667 16.7507 7.25 16.334 7.66667L12.7507 10.8333C12.2507 11.25 11.9173 12.0833 11.9173 12.75V16.3333C11.9173 16.8333 11.584 17.5 11.1673 17.75L10.0007 18.5C8.91732 19.1667 7.41732 18.4167 7.41732 17.0833V12.6667C7.41732 12.0833 7.08398 11.3333 6.75065 10.9167L3.58398 7.58333C3.16732 7.16667 2.83398 6.41667 2.83398 5.91667V4C2.83398 3 3.58398 2.25 4.50065 2.25Z" stroke="#5D5C62" stroke-width="1.5" stroke-miterlimit="10" stroke-linecap="round" stroke-linejoin="round"/>
<path id="Vector_2" d="M9.10833 2.25L5 8.83333" stroke="#5D5C62" stroke-width="1.5" stroke-miterlimit="10" stroke-linecap="round" stroke-linejoin="round"/>
</g>
</g>
</svg>
