<svg width="96" height="96" viewBox="0 0 96 96" fill="none" xmlns="http://www.w3.org/2000/svg">
<g clip-path="url(#clip0_2002_571)">
<rect width="96" height="96" rx="48" fill="#ECFDF5"/>
<rect x="12" y="12" width="72" height="72" rx="36" fill="#D1FAE5"/>
<rect x="24" y="24" width="48" height="48" rx="24" fill="white"/>
<path d="M48 24C34.7665 24 24 34.7665 24 48C24 61.2335 34.7665 72 48 72C61.2335 72 72 61.2335 72 48C72 34.7665 61.2335 24 48 24ZM60.4904 39.9565L44.9827 58.4181C44.8126 58.6207 44.6009 58.7844 44.362 58.8981C44.1231 59.0117 43.8626 59.0727 43.5981 59.0769H43.5669C43.3082 59.0768 43.0523 59.0223 42.816 58.917C42.5796 58.8116 42.368 58.6578 42.195 58.4654L35.5488 51.0808C35.3801 50.9017 35.2488 50.6908 35.1627 50.4603C35.0766 50.2298 35.0374 49.9844 35.0475 49.7386C35.0576 49.4928 35.1167 49.2514 35.2214 49.0287C35.3261 48.8061 35.4743 48.6066 35.6572 48.442C35.8401 48.2774 36.054 48.1511 36.2864 48.0703C36.5189 47.9896 36.7651 47.9562 37.0106 47.972C37.2562 47.9878 37.4961 48.0525 37.7162 48.1623C37.9364 48.2721 38.1324 48.4249 38.2927 48.6115L43.5185 54.4177L57.6635 37.5819C57.9807 37.2151 58.4296 36.9879 58.9131 36.9493C59.3966 36.9108 59.8758 37.0641 60.2472 37.376C60.6186 37.688 60.8523 38.1336 60.8978 38.6164C60.9433 39.0993 60.7969 39.5807 60.4904 39.9565Z" fill="#10B981"/>
</g>
<defs>
<clipPath id="clip0_2002_571">
<rect width="96" height="96" fill="white"/>
</clipPath>
</defs>
</svg>
