<svg width="20" height="20" viewBox="0 0 20 20" fill="none" xmlns="http://www.w3.org/2000/svg">
<g id="vuesax/linear/eye">
<g id="eye">
<path id="Vector" d="M12.9842 10.0009C12.9842 11.6509 11.6509 12.9842 10.0009 12.9842C8.35091 12.9842 7.01758 11.6509 7.01758 10.0009C7.01758 8.35091 8.35091 7.01758 10.0009 7.01758C11.6509 7.01758 12.9842 8.35091 12.9842 10.0009Z" stroke="#949496" stroke-width="1.5" stroke-linecap="round" stroke-linejoin="round"/>
<path id="Vector_2" d="M9.99987 16.8913C12.9415 16.8913 15.6832 15.1579 17.5915 12.1579C18.3415 10.9829 18.3415 9.00794 17.5915 7.83294C15.6832 4.83294 12.9415 3.09961 9.99987 3.09961C7.0582 3.09961 4.31654 4.83294 2.4082 7.83294C1.6582 9.00794 1.6582 10.9829 2.4082 12.1579C4.31654 15.1579 7.0582 16.8913 9.99987 16.8913Z" stroke="#949496" stroke-width="1.5" stroke-linecap="round" stroke-linejoin="round"/>
</g>
</g>
</svg>
