<svg width="20" height="20" viewBox="0 0 20 20" fill="none" xmlns="http://www.w3.org/2000/svg">
<path d="M3.33325 16.6667V8.33333C3.33325 7.44928 3.68444 6.60143 4.30956 5.97631C4.93468 5.35119 5.78253 5 6.66659 5H13.3333C14.2173 5 15.0652 5.35119 15.6903 5.97631C16.3154 6.60143 16.6666 7.44928 16.6666 8.33333V16.6667C16.6666 17.1087 16.491 17.5326 16.1784 17.8452C15.8659 18.1577 15.4419 18.3333 14.9999 18.3333H4.99992C4.55789 18.3333 4.13397 18.1577 3.82141 17.8452C3.50885 17.5326 3.33325 17.1087 3.33325 16.6667Z" stroke="#3F3F46" stroke-width="2" stroke-linecap="round" stroke-linejoin="round"/>
<path d="M7.5 5.00001V3.33334C7.5 2.89131 7.6756 2.46739 7.98816 2.15483C8.30072 1.84227 8.72464 1.66667 9.16667 1.66667H10.8333C11.2754 1.66667 11.6993 1.84227 12.0118 2.15483C12.3244 2.46739 12.5 2.89131 12.5 3.33334V5.00001" stroke="#3F3F46" stroke-width="2" stroke-linecap="round" stroke-linejoin="round"/>
<path d="M6.66675 17.5V13.3333C6.66675 12.8913 6.84234 12.4674 7.1549 12.1548C7.46746 11.8423 7.89139 11.6667 8.33341 11.6667H11.6667C12.1088 11.6667 12.5327 11.8423 12.8453 12.1548C13.1578 12.4674 13.3334 12.8913 13.3334 13.3333V17.5" stroke="#3F3F46" stroke-width="2" stroke-linecap="round" stroke-linejoin="round"/>
<path d="M6.66675 8.33333H13.3334" stroke="black" stroke-width="2" stroke-linecap="round" stroke-linejoin="round"/>
<path d="M6.66675 15H13.3334" stroke="black" stroke-width="2" stroke-linecap="round" stroke-linejoin="round"/>
</svg>
